<mxfile host="app.diagrams.net" modified="2024-04-15T00:10:58.194Z" agent="Mozilla/5.0 (Windows NT 10.0; Win64; x64) AppleWebKit/537.36 (KHTML, like Gecko) Chrome/123.0.0.0 Safari/537.36" etag="V-BIuc0z01Ct-7qVeIQ9" version="24.2.5" type="github">
  <diagram name="Page-1" id="iR4N4BcREr7UFgB49-8y">
    <mxGraphModel dx="1483" dy="326" grid="1" gridSize="10" guides="1" tooltips="1" connect="1" arrows="1" fold="1" page="1" pageScale="1" pageWidth="827" pageHeight="1169" math="0" shadow="0">
      <root>
        <mxCell id="0" />
        <mxCell id="1" parent="0" />
        <mxCell id="dkj_W2RUq003pUZIVeDE-3" value="front end user login" style="whiteSpace=wrap;html=1;aspect=fixed;" parent="1" vertex="1">
          <mxGeometry x="30" y="20" width="100" height="100" as="geometry" />
        </mxCell>
        <mxCell id="5GQmlD0UiP_vLpZMc5AV-24" style="edgeStyle=orthogonalEdgeStyle;rounded=0;orthogonalLoop=1;jettySize=auto;html=1;exitX=0.145;exitY=1;exitDx=0;exitDy=-4.35;exitPerimeter=0;entryX=1;entryY=0.5;entryDx=0;entryDy=0;" edge="1" parent="1" source="dkj_W2RUq003pUZIVeDE-6" target="dkj_W2RUq003pUZIVeDE-10">
          <mxGeometry relative="1" as="geometry" />
        </mxCell>
        <mxCell id="5GQmlD0UiP_vLpZMc5AV-25" value="&lt;span style=&quot;color: rgba(0, 0, 0, 0); font-family: monospace; font-size: 0px; text-align: start; background-color: rgb(251, 251, 251);&quot;&gt;%3CmxGraphModel%3E%3Croot%3E%3CmxCell%20id%3D%220%22%2F%3E%3CmxCell%20id%3D%221%22%20parent%3D%220%22%2F%3E%3CmxCell%20id%3D%222%22%20value%3D%22send%20the%26amp%3Bnbsp%3B%26lt%3Bdiv%26gt%3Bpair%20user%20id%20and%26lt%3B%2Fdiv%26gt%3B%26lt%3Bdiv%26gt%3Busername%26lt%3B%2Fdiv%26gt%3B%22%20style%3D%22edgeLabel%3Bhtml%3D1%3Balign%3Dcenter%3BverticalAlign%3Dmiddle%3Bresizable%3D0%3Bpoints%3D%5B%5D%3B%22%20vertex%3D%221%22%20connectable%3D%220%22%20parent%3D%221%22%3E%3CmxGeometry%20x%3D%22209.9565217391305%22%20y%3D%22272.5652173913047%22%20as%3D%22geometry%22%2F%3E%3C%2FmxCell%3E%3C%2Froot%3E%3C%2FmxGraphModel%3E&lt;/span&gt;&lt;span style=&quot;color: rgba(0, 0, 0, 0); font-family: monospace; font-size: 0px; text-align: start; background-color: rgb(251, 251, 251);&quot;&gt;%3CmxGraphModel%3E%3Croot%3E%3CmxCell%20id%3D%220%22%2F%3E%3CmxCell%20id%3D%221%22%20parent%3D%220%22%2F%3E%3CmxCell%20id%3D%222%22%20value%3D%22send%20the%26amp%3Bnbsp%3B%26lt%3Bdiv%26gt%3Bpair%20user%20id%20and%26lt%3B%2Fdiv%26gt%3B%26lt%3Bdiv%26gt%3Busername%26lt%3B%2Fdiv%26gt%3B%22%20style%3D%22edgeLabel%3Bhtml%3D1%3Balign%3Dcenter%3BverticalAlign%3Dmiddle%3Bresizable%3D0%3Bpoints%3D%5B%5D%3B%22%20vertex%3D%221%22%20connectable%3D%220%22%20parent%3D%221%22%3E%3CmxGeometry%20x%3D%22209.9565217391305%22%20y%3D%22272.5652173913047%22%20as%3D%22geometry%22%2F%3E%3C%2FmxCell%3E%3C%2Froot%3E%3C%2FmxGraphModel%3E&lt;/span&gt;" style="edgeLabel;html=1;align=center;verticalAlign=middle;resizable=0;points=[];" vertex="1" connectable="0" parent="5GQmlD0UiP_vLpZMc5AV-24">
          <mxGeometry x="-0.0791" y="-1" relative="1" as="geometry">
            <mxPoint as="offset" />
          </mxGeometry>
        </mxCell>
        <mxCell id="5GQmlD0UiP_vLpZMc5AV-26" value="send the&amp;nbsp;&lt;div&gt;pair user id and&lt;/div&gt;&lt;div&gt;username&lt;/div&gt;" style="edgeLabel;html=1;align=center;verticalAlign=middle;resizable=0;points=[];" vertex="1" connectable="0" parent="5GQmlD0UiP_vLpZMc5AV-24">
          <mxGeometry x="-0.1145" y="-2" relative="1" as="geometry">
            <mxPoint as="offset" />
          </mxGeometry>
        </mxCell>
        <mxCell id="5GQmlD0UiP_vLpZMc5AV-27" style="edgeStyle=orthogonalEdgeStyle;rounded=0;orthogonalLoop=1;jettySize=auto;html=1;exitX=0.855;exitY=1;exitDx=0;exitDy=-4.35;exitPerimeter=0;entryX=0;entryY=0.5;entryDx=0;entryDy=0;" edge="1" parent="1" source="dkj_W2RUq003pUZIVeDE-6" target="dkj_W2RUq003pUZIVeDE-29">
          <mxGeometry relative="1" as="geometry" />
        </mxCell>
        <mxCell id="5GQmlD0UiP_vLpZMc5AV-29" value="&lt;span style=&quot;color: rgba(0, 0, 0, 0); font-family: monospace; font-size: 0px; text-align: start; background-color: rgb(251, 251, 251);&quot;&gt;%3CmxGraphModel%3E%3Croot%3E%3CmxCell%20id%3D%220%22%2F%3E%3CmxCell%20id%3D%221%22%20parent%3D%220%22%2F%3E%3CmxCell%20id%3D%222%22%20value%3D%22send%20the%26amp%3Bnbsp%3B%26lt%3Bdiv%26gt%3Bpair%20user%20id%20and%26lt%3B%2Fdiv%26gt%3B%26lt%3Bdiv%26gt%3Busername%26lt%3B%2Fdiv%26gt%3B%22%20style%3D%22edgeLabel%3Bhtml%3D1%3Balign%3Dcenter%3BverticalAlign%3Dmiddle%3Bresizable%3D0%3Bpoints%3D%5B%5D%3B%22%20vertex%3D%221%22%20connectable%3D%220%22%20parent%3D%221%22%3E%3CmxGeometry%20x%3D%22193.00000000000023%22%20y%3D%22260.2955885182214%22%20as%3D%22geometry%22%2F%3E%3C%2FmxCell%3E%3C%2Froot%3E%3C%2FmxGraphModel%3E&lt;/span&gt;" style="edgeLabel;html=1;align=center;verticalAlign=middle;resizable=0;points=[];" vertex="1" connectable="0" parent="5GQmlD0UiP_vLpZMc5AV-27">
          <mxGeometry x="0.0674" y="-1" relative="1" as="geometry">
            <mxPoint as="offset" />
          </mxGeometry>
        </mxCell>
        <mxCell id="5GQmlD0UiP_vLpZMc5AV-42" value="send the&amp;nbsp;&lt;div&gt;pair user id and&lt;/div&gt;&lt;div&gt;username&lt;/div&gt;" style="edgeLabel;html=1;align=center;verticalAlign=middle;resizable=0;points=[];" vertex="1" connectable="0" parent="5GQmlD0UiP_vLpZMc5AV-27">
          <mxGeometry x="-0.0695" y="-1" relative="1" as="geometry">
            <mxPoint as="offset" />
          </mxGeometry>
        </mxCell>
        <mxCell id="dkj_W2RUq003pUZIVeDE-6" value="server" style="shape=cylinder3;whiteSpace=wrap;html=1;boundedLbl=1;backgroundOutline=1;size=15;" parent="1" vertex="1">
          <mxGeometry x="240" y="110" width="120" height="130" as="geometry" />
        </mxCell>
        <mxCell id="dkj_W2RUq003pUZIVeDE-9" value="&lt;div style=&quot;font-size: 11px;&quot;&gt;&lt;span style=&quot;background-color: initial; font-size: 11px;&quot; data-sider-select-id=&quot;f10487b1-e6b8-4db5-b138-cbee3940dc40&quot;&gt;select random&amp;nbsp;&lt;/span&gt;&lt;span style=&quot;background-color: initial; font-size: 11px;&quot;&gt;user&amp;nbsp;&lt;/span&gt;&lt;/div&gt;&lt;div style=&quot;font-size: 11px;&quot;&gt;&lt;span style=&quot;background-color: initial; font-size: 11px;&quot;&gt;id&amp;nbsp;&lt;/span&gt;&lt;span style=&quot;background-color: initial;&quot;&gt;from&amp;nbsp;&lt;/span&gt;&lt;span style=&quot;background-color: initial;&quot;&gt;DB, and&amp;nbsp;&lt;/span&gt;&lt;/div&gt;&lt;div style=&quot;font-size: 11px;&quot;&gt;&lt;span style=&quot;background-color: initial;&quot;&gt;make&amp;nbsp;&lt;/span&gt;&lt;span style=&quot;background-color: initial;&quot;&gt;pair of them&lt;/span&gt;&lt;/div&gt;" style="ellipse;shape=cloud;whiteSpace=wrap;html=1;fontSize=11;" parent="1" vertex="1">
          <mxGeometry x="320" y="125" width="130" height="85" as="geometry" />
        </mxCell>
        <mxCell id="dkj_W2RUq003pUZIVeDE-10" value="front end" style="rounded=0;whiteSpace=wrap;html=1;" parent="1" vertex="1">
          <mxGeometry x="30" y="275" width="120" height="100" as="geometry" />
        </mxCell>
        <mxCell id="dkj_W2RUq003pUZIVeDE-14" value="&lt;div style=&quot;font-size: 11px;&quot;&gt;&lt;span style=&quot;background-color: initial;&quot;&gt;front end save&lt;/span&gt;&lt;br&gt;&lt;/div&gt;&lt;div style=&quot;font-size: 11px;&quot;&gt;&lt;font style=&quot;font-size: 11px;&quot;&gt;randome&amp;nbsp;&lt;/font&gt;&lt;/div&gt;&lt;div style=&quot;font-size: 11px;&quot;&gt;&lt;font style=&quot;font-size: 11px;&quot;&gt;username&amp;nbsp;&lt;/font&gt;&lt;span style=&quot;background-color: initial;&quot;&gt;and ID&lt;/span&gt;&lt;/div&gt;" style="ellipse;shape=cloud;whiteSpace=wrap;html=1;" parent="1" vertex="1">
          <mxGeometry x="-10" y="220" width="136" height="80" as="geometry" />
        </mxCell>
        <mxCell id="5GQmlD0UiP_vLpZMc5AV-44" style="edgeStyle=orthogonalEdgeStyle;rounded=0;orthogonalLoop=1;jettySize=auto;html=1;exitX=0.145;exitY=1;exitDx=0;exitDy=-4.35;exitPerimeter=0;entryX=0.5;entryY=0;entryDx=0;entryDy=0;" edge="1" parent="1" source="dkj_W2RUq003pUZIVeDE-19" target="5GQmlD0UiP_vLpZMc5AV-43">
          <mxGeometry relative="1" as="geometry" />
        </mxCell>
        <mxCell id="5GQmlD0UiP_vLpZMc5AV-47" value="&lt;div data-sider-select-id=&quot;4b093896-2470-47d0-98d6-1396ded7c34f&quot;&gt;Send message back with socket ID.&lt;/div&gt;&lt;div data-sider-select-id=&quot;959e74b2-ad3e-4542-82d4-9bf6fe0500ee&quot;&gt;(Using socket ID, only one user will receive&amp;nbsp;&lt;/div&gt;&lt;div data-sider-select-id=&quot;959e74b2-ad3e-4542-82d4-9bf6fe0500ee&quot;&gt;the message.)&lt;/div&gt;" style="edgeLabel;html=1;align=center;verticalAlign=middle;resizable=0;points=[];" vertex="1" connectable="0" parent="5GQmlD0UiP_vLpZMc5AV-44">
          <mxGeometry x="0.2968" relative="1" as="geometry">
            <mxPoint as="offset" />
          </mxGeometry>
        </mxCell>
        <mxCell id="5GQmlD0UiP_vLpZMc5AV-49" style="edgeStyle=orthogonalEdgeStyle;rounded=0;orthogonalLoop=1;jettySize=auto;html=1;exitX=0.855;exitY=1;exitDx=0;exitDy=-4.35;exitPerimeter=0;" edge="1" parent="1" source="dkj_W2RUq003pUZIVeDE-19" target="5GQmlD0UiP_vLpZMc5AV-48">
          <mxGeometry relative="1" as="geometry" />
        </mxCell>
        <mxCell id="5GQmlD0UiP_vLpZMc5AV-50" value="&lt;div data-sider-select-id=&quot;4b093896-2470-47d0-98d6-1396ded7c34f&quot;&gt;Send message back with&amp;nbsp;&lt;/div&gt;&lt;div data-sider-select-id=&quot;4b093896-2470-47d0-98d6-1396ded7c34f&quot;&gt;socket ID.&lt;/div&gt;" style="edgeLabel;html=1;align=center;verticalAlign=middle;resizable=0;points=[];" vertex="1" connectable="0" parent="5GQmlD0UiP_vLpZMc5AV-49">
          <mxGeometry x="0.344" y="1" relative="1" as="geometry">
            <mxPoint as="offset" />
          </mxGeometry>
        </mxCell>
        <mxCell id="dkj_W2RUq003pUZIVeDE-19" value="server" style="shape=cylinder3;whiteSpace=wrap;html=1;boundedLbl=1;backgroundOutline=1;size=15;" parent="1" vertex="1">
          <mxGeometry x="240" y="430" width="120" height="130" as="geometry" />
        </mxCell>
        <mxCell id="dkj_W2RUq003pUZIVeDE-29" value="front end" style="rounded=0;whiteSpace=wrap;html=1;" parent="1" vertex="1">
          <mxGeometry x="460" y="275" width="120" height="100" as="geometry" />
        </mxCell>
        <mxCell id="5GQmlD0UiP_vLpZMc5AV-18" value="front end other user login" style="whiteSpace=wrap;html=1;aspect=fixed;" vertex="1" parent="1">
          <mxGeometry x="480" y="20" width="100" height="100" as="geometry" />
        </mxCell>
        <mxCell id="5GQmlD0UiP_vLpZMc5AV-19" style="edgeStyle=orthogonalEdgeStyle;rounded=0;orthogonalLoop=1;jettySize=auto;html=1;entryX=0.145;entryY=0;entryDx=0;entryDy=4.35;entryPerimeter=0;" edge="1" parent="1" source="dkj_W2RUq003pUZIVeDE-3" target="dkj_W2RUq003pUZIVeDE-6">
          <mxGeometry relative="1" as="geometry" />
        </mxCell>
        <mxCell id="5GQmlD0UiP_vLpZMc5AV-21" value="send user id,&lt;div&gt;username&lt;/div&gt;" style="edgeLabel;html=1;align=center;verticalAlign=middle;resizable=0;points=[];" vertex="1" connectable="0" parent="5GQmlD0UiP_vLpZMc5AV-19">
          <mxGeometry x="-0.4517" relative="1" as="geometry">
            <mxPoint as="offset" />
          </mxGeometry>
        </mxCell>
        <mxCell id="5GQmlD0UiP_vLpZMc5AV-20" style="edgeStyle=orthogonalEdgeStyle;rounded=0;orthogonalLoop=1;jettySize=auto;html=1;entryX=0.855;entryY=0;entryDx=0;entryDy=4.35;entryPerimeter=0;" edge="1" parent="1" source="5GQmlD0UiP_vLpZMc5AV-18" target="dkj_W2RUq003pUZIVeDE-6">
          <mxGeometry relative="1" as="geometry" />
        </mxCell>
        <mxCell id="5GQmlD0UiP_vLpZMc5AV-23" value="send user id,&lt;div&gt;username&lt;/div&gt;" style="edgeLabel;html=1;align=center;verticalAlign=middle;resizable=0;points=[];" vertex="1" connectable="0" parent="5GQmlD0UiP_vLpZMc5AV-20">
          <mxGeometry x="-0.4268" y="-2" relative="1" as="geometry">
            <mxPoint as="offset" />
          </mxGeometry>
        </mxCell>
        <mxCell id="5GQmlD0UiP_vLpZMc5AV-34" style="edgeStyle=orthogonalEdgeStyle;rounded=0;orthogonalLoop=1;jettySize=auto;html=1;entryX=0.145;entryY=0;entryDx=0;entryDy=4.35;entryPerimeter=0;" edge="1" parent="1" source="dkj_W2RUq003pUZIVeDE-10" target="dkj_W2RUq003pUZIVeDE-19">
          <mxGeometry relative="1" as="geometry">
            <Array as="points">
              <mxPoint x="90" y="400" />
              <mxPoint x="257" y="400" />
            </Array>
          </mxGeometry>
        </mxCell>
        <mxCell id="5GQmlD0UiP_vLpZMc5AV-37" value="send message&amp;nbsp; with his&amp;nbsp;&lt;div&gt;userID and randome&lt;div&gt;userID&lt;/div&gt;&lt;/div&gt;" style="edgeLabel;html=1;align=center;verticalAlign=middle;resizable=0;points=[];" vertex="1" connectable="0" parent="5GQmlD0UiP_vLpZMc5AV-34">
          <mxGeometry x="0.0198" y="3" relative="1" as="geometry">
            <mxPoint as="offset" />
          </mxGeometry>
        </mxCell>
        <mxCell id="5GQmlD0UiP_vLpZMc5AV-35" style="edgeStyle=orthogonalEdgeStyle;rounded=0;orthogonalLoop=1;jettySize=auto;html=1;entryX=0.855;entryY=0;entryDx=0;entryDy=4.35;entryPerimeter=0;" edge="1" parent="1" source="dkj_W2RUq003pUZIVeDE-29" target="dkj_W2RUq003pUZIVeDE-19">
          <mxGeometry relative="1" as="geometry">
            <Array as="points">
              <mxPoint x="520" y="400" />
              <mxPoint x="343" y="400" />
            </Array>
          </mxGeometry>
        </mxCell>
        <mxCell id="5GQmlD0UiP_vLpZMc5AV-38" value="send message&amp;nbsp; with his&amp;nbsp;&lt;div&gt;userID and randome&lt;div&gt;userID&lt;/div&gt;&lt;/div&gt;" style="edgeLabel;html=1;align=center;verticalAlign=middle;resizable=0;points=[];" vertex="1" connectable="0" parent="5GQmlD0UiP_vLpZMc5AV-35">
          <mxGeometry x="0.1085" relative="1" as="geometry">
            <mxPoint as="offset" />
          </mxGeometry>
        </mxCell>
        <mxCell id="5GQmlD0UiP_vLpZMc5AV-39" value="&lt;div style=&quot;font-size: 11px;&quot;&gt;&lt;span style=&quot;background-color: initial;&quot;&gt;front end save&lt;/span&gt;&lt;br&gt;&lt;/div&gt;&lt;div style=&quot;font-size: 11px;&quot;&gt;&lt;font style=&quot;font-size: 11px;&quot;&gt;randome&amp;nbsp;&lt;/font&gt;&lt;/div&gt;&lt;div style=&quot;font-size: 11px;&quot;&gt;&lt;font style=&quot;font-size: 11px;&quot;&gt;username&amp;nbsp;&lt;/font&gt;&lt;span style=&quot;background-color: initial;&quot;&gt;and ID&lt;/span&gt;&lt;/div&gt;" style="ellipse;shape=cloud;whiteSpace=wrap;html=1;" vertex="1" parent="1">
          <mxGeometry x="500" y="230" width="136" height="80" as="geometry" />
        </mxCell>
        <mxCell id="5GQmlD0UiP_vLpZMc5AV-43" value="front end" style="rounded=0;whiteSpace=wrap;html=1;" vertex="1" parent="1">
          <mxGeometry x="30" y="600" width="120" height="100" as="geometry" />
        </mxCell>
        <mxCell id="5GQmlD0UiP_vLpZMc5AV-48" value="front end" style="rounded=0;whiteSpace=wrap;html=1;" vertex="1" parent="1">
          <mxGeometry x="460" y="600" width="120" height="100" as="geometry" />
        </mxCell>
      </root>
    </mxGraphModel>
  </diagram>
</mxfile>
